<mxfile host="app.diagrams.net" agent="Mozilla/5.0 (Windows NT 10.0; Win64; x64) AppleWebKit/537.36 (KHTML, like Gecko) Chrome/131.0.0.0 Safari/537.36" version="25.0.3">
  <diagram name="Page-1" id="1pS5nne5ay4UwRCuELFb">
    <mxGraphModel dx="2961" dy="1209" grid="1" gridSize="10" guides="1" tooltips="1" connect="1" arrows="1" fold="1" page="1" pageScale="1" pageWidth="850" pageHeight="1100" math="0" shadow="0">
      <root>
        <mxCell id="0" />
        <mxCell id="1" parent="0" />
        <mxCell id="IEgsuIe9ImZTveWtjrnu-1" value="Mahasiswa" style="swimlane;whiteSpace=wrap;html=1;" parent="1" vertex="1">
          <mxGeometry x="-80" y="10" width="590" height="1610" as="geometry" />
        </mxCell>
        <mxCell id="IEgsuIe9ImZTveWtjrnu-6" style="edgeStyle=orthogonalEdgeStyle;rounded=0;orthogonalLoop=1;jettySize=auto;html=1;endArrow=blockThin;endFill=1;" parent="IEgsuIe9ImZTveWtjrnu-1" source="IEgsuIe9ImZTveWtjrnu-4" target="IEgsuIe9ImZTveWtjrnu-5" edge="1">
          <mxGeometry relative="1" as="geometry" />
        </mxCell>
        <mxCell id="IEgsuIe9ImZTveWtjrnu-4" value="" style="ellipse;fillColor=strokeColor;html=1;" parent="IEgsuIe9ImZTveWtjrnu-1" vertex="1">
          <mxGeometry x="280" y="40" width="30" height="30" as="geometry" />
        </mxCell>
        <mxCell id="IEgsuIe9ImZTveWtjrnu-5" value="Membuka Website" style="html=1;align=center;verticalAlign=middle;rounded=1;absoluteArcSize=1;arcSize=10;dashed=0;whiteSpace=wrap;labelPosition=center;verticalLabelPosition=middle;fontSize=16;" parent="IEgsuIe9ImZTveWtjrnu-1" vertex="1">
          <mxGeometry x="210" y="90.5" width="170" height="40" as="geometry" />
        </mxCell>
        <mxCell id="IEgsuIe9ImZTveWtjrnu-18" value="Membuka Halaman Login" style="html=1;align=center;verticalAlign=middle;rounded=1;absoluteArcSize=1;arcSize=10;dashed=0;whiteSpace=wrap;labelPosition=center;verticalLabelPosition=middle;fontSize=15;" parent="IEgsuIe9ImZTveWtjrnu-1" vertex="1">
          <mxGeometry x="210" y="150" width="170" height="40" as="geometry" />
        </mxCell>
        <mxCell id="IEgsuIe9ImZTveWtjrnu-43" style="edgeStyle=orthogonalEdgeStyle;rounded=0;orthogonalLoop=1;jettySize=auto;html=1;strokeColor=default;align=center;verticalAlign=middle;fontFamily=Helvetica;fontSize=11;fontColor=default;labelBackgroundColor=default;endArrow=block;endFill=1;" parent="IEgsuIe9ImZTveWtjrnu-1" source="IEgsuIe9ImZTveWtjrnu-21" target="IEgsuIe9ImZTveWtjrnu-30" edge="1">
          <mxGeometry relative="1" as="geometry" />
        </mxCell>
        <mxCell id="Frry8JoZcenMl01VOtcv-31" value="Belum memiliki akun" style="edgeLabel;html=1;align=center;verticalAlign=middle;resizable=0;points=[];fontFamily=Helvetica;fontSize=15;fontColor=default;labelBackgroundColor=default;" parent="IEgsuIe9ImZTveWtjrnu-43" vertex="1" connectable="0">
          <mxGeometry x="-0.4686" y="2" relative="1" as="geometry">
            <mxPoint x="31" as="offset" />
          </mxGeometry>
        </mxCell>
        <mxCell id="Frry8JoZcenMl01VOtcv-20" style="edgeStyle=orthogonalEdgeStyle;rounded=0;orthogonalLoop=1;jettySize=auto;html=1;entryX=0.5;entryY=0;entryDx=0;entryDy=0;strokeColor=default;align=center;verticalAlign=middle;fontFamily=Helvetica;fontSize=11;fontColor=default;labelBackgroundColor=default;endArrow=block;endFill=1;" parent="IEgsuIe9ImZTveWtjrnu-1" source="IEgsuIe9ImZTveWtjrnu-21" target="IEgsuIe9ImZTveWtjrnu-22" edge="1">
          <mxGeometry relative="1" as="geometry" />
        </mxCell>
        <mxCell id="Frry8JoZcenMl01VOtcv-30" value="Sudah memiliki akun" style="edgeLabel;html=1;align=center;verticalAlign=middle;resizable=0;points=[];fontFamily=Helvetica;fontSize=15;fontColor=default;labelBackgroundColor=default;" parent="Frry8JoZcenMl01VOtcv-20" vertex="1" connectable="0">
          <mxGeometry x="-0.3787" y="1" relative="1" as="geometry">
            <mxPoint x="-29" as="offset" />
          </mxGeometry>
        </mxCell>
        <mxCell id="IEgsuIe9ImZTveWtjrnu-21" value="" style="rhombus;" parent="IEgsuIe9ImZTveWtjrnu-1" vertex="1">
          <mxGeometry x="280" y="270" width="30" height="30" as="geometry" />
        </mxCell>
        <mxCell id="IEgsuIe9ImZTveWtjrnu-22" value="Melakukan login" style="html=1;align=center;verticalAlign=middle;rounded=1;absoluteArcSize=1;arcSize=10;dashed=0;whiteSpace=wrap;labelPosition=center;verticalLabelPosition=middle;fontSize=15;" parent="IEgsuIe9ImZTveWtjrnu-1" vertex="1">
          <mxGeometry x="60" y="370" width="170" height="40" as="geometry" />
        </mxCell>
        <mxCell id="IEgsuIe9ImZTveWtjrnu-30" value="Membuka halaman register" style="html=1;align=center;verticalAlign=middle;rounded=1;absoluteArcSize=1;arcSize=10;dashed=0;whiteSpace=wrap;labelPosition=center;verticalLabelPosition=middle;fontSize=15;" parent="IEgsuIe9ImZTveWtjrnu-1" vertex="1">
          <mxGeometry x="380" y="310" width="170" height="40" as="geometry" />
        </mxCell>
        <mxCell id="IEgsuIe9ImZTveWtjrnu-32" value="Melakukan register" style="html=1;align=center;verticalAlign=middle;rounded=1;absoluteArcSize=1;arcSize=10;dashed=0;whiteSpace=wrap;labelPosition=center;verticalLabelPosition=middle;fontSize=15;" parent="IEgsuIe9ImZTveWtjrnu-1" vertex="1">
          <mxGeometry x="380" y="370" width="170" height="40" as="geometry" />
        </mxCell>
        <mxCell id="9lwKUN8deFw_M2zKzOt3-55" style="edgeStyle=orthogonalEdgeStyle;rounded=0;orthogonalLoop=1;jettySize=auto;html=1;entryX=0.5;entryY=0;entryDx=0;entryDy=0;endArrow=block;endFill=1;" parent="IEgsuIe9ImZTveWtjrnu-1" source="IEgsuIe9ImZTveWtjrnu-36" target="IEgsuIe9ImZTveWtjrnu-37" edge="1">
          <mxGeometry relative="1" as="geometry" />
        </mxCell>
        <mxCell id="Frry8JoZcenMl01VOtcv-27" value="&lt;font style=&quot;font-size: 15px;&quot;&gt;Melihat Catatan&lt;/font&gt;" style="edgeLabel;html=1;align=center;verticalAlign=middle;resizable=0;points=[];" parent="9lwKUN8deFw_M2zKzOt3-55" vertex="1" connectable="0">
          <mxGeometry x="-0.0655" y="-1" relative="1" as="geometry">
            <mxPoint x="-14" as="offset" />
          </mxGeometry>
        </mxCell>
        <mxCell id="9lwKUN8deFw_M2zKzOt3-56" style="edgeStyle=orthogonalEdgeStyle;rounded=0;orthogonalLoop=1;jettySize=auto;html=1;endArrow=block;endFill=1;" parent="IEgsuIe9ImZTveWtjrnu-1" source="IEgsuIe9ImZTveWtjrnu-36" target="IEgsuIe9ImZTveWtjrnu-59" edge="1">
          <mxGeometry relative="1" as="geometry" />
        </mxCell>
        <mxCell id="Frry8JoZcenMl01VOtcv-26" value="Tambah Catatan" style="edgeLabel;html=1;align=center;verticalAlign=middle;resizable=0;points=[];fontSize=15;" parent="9lwKUN8deFw_M2zKzOt3-56" vertex="1" connectable="0">
          <mxGeometry x="-0.3929" y="-1" relative="1" as="geometry">
            <mxPoint x="21" as="offset" />
          </mxGeometry>
        </mxCell>
        <mxCell id="IEgsuIe9ImZTveWtjrnu-36" value="" style="rhombus;" parent="IEgsuIe9ImZTveWtjrnu-1" vertex="1">
          <mxGeometry x="280" y="620" width="30" height="30" as="geometry" />
        </mxCell>
        <mxCell id="IEgsuIe9ImZTveWtjrnu-59" value="Tekan tombol mata kuliah" style="html=1;align=center;verticalAlign=middle;rounded=1;absoluteArcSize=1;arcSize=10;dashed=0;whiteSpace=wrap;labelPosition=center;verticalLabelPosition=middle;fontSize=15;" parent="IEgsuIe9ImZTveWtjrnu-1" vertex="1">
          <mxGeometry x="370" y="670" width="170" height="40" as="geometry" />
        </mxCell>
        <mxCell id="IEgsuIe9ImZTveWtjrnu-37" value="Memilih Mata kuliah" style="html=1;align=center;verticalAlign=middle;rounded=1;absoluteArcSize=1;arcSize=10;dashed=0;whiteSpace=wrap;labelPosition=center;verticalLabelPosition=middle;fontSize=15;" parent="IEgsuIe9ImZTveWtjrnu-1" vertex="1">
          <mxGeometry x="105" y="670" width="170" height="40" as="geometry" />
        </mxCell>
        <mxCell id="9lwKUN8deFw_M2zKzOt3-13" style="edgeStyle=orthogonalEdgeStyle;rounded=0;orthogonalLoop=1;jettySize=auto;html=1;entryX=0.5;entryY=0;entryDx=0;entryDy=0;exitX=0;exitY=0.5;exitDx=0;exitDy=0;strokeColor=default;align=center;verticalAlign=middle;fontFamily=Helvetica;fontSize=11;fontColor=default;labelBackgroundColor=default;endArrow=block;endFill=1;" parent="IEgsuIe9ImZTveWtjrnu-1" source="IEgsuIe9ImZTveWtjrnu-71" target="IEgsuIe9ImZTveWtjrnu-63" edge="1">
          <mxGeometry relative="1" as="geometry">
            <mxPoint x="95" y="1073" as="targetPoint" />
          </mxGeometry>
        </mxCell>
        <mxCell id="9lwKUN8deFw_M2zKzOt3-16" value="Lihat detail pertemuan" style="edgeLabel;html=1;align=center;verticalAlign=middle;resizable=0;points=[];rounded=0;strokeColor=default;fontFamily=Helvetica;fontSize=15;fontColor=default;labelBackgroundColor=default;" parent="9lwKUN8deFw_M2zKzOt3-13" vertex="1" connectable="0">
          <mxGeometry x="-0.44" relative="1" as="geometry">
            <mxPoint x="-45" y="-19" as="offset" />
          </mxGeometry>
        </mxCell>
        <mxCell id="IEgsuIe9ImZTveWtjrnu-71" value="" style="rhombus;" parent="IEgsuIe9ImZTveWtjrnu-1" vertex="1">
          <mxGeometry x="175" y="880" width="30" height="30" as="geometry" />
        </mxCell>
        <mxCell id="IEgsuIe9ImZTveWtjrnu-63" value="Memilih pertemuan" style="html=1;align=center;verticalAlign=middle;rounded=1;absoluteArcSize=1;arcSize=10;dashed=0;whiteSpace=wrap;labelPosition=center;verticalLabelPosition=middle;fontSize=15;" parent="IEgsuIe9ImZTveWtjrnu-1" vertex="1">
          <mxGeometry x="50" y="1060" width="170" height="40" as="geometry" />
        </mxCell>
        <mxCell id="9lwKUN8deFw_M2zKzOt3-23" style="edgeStyle=orthogonalEdgeStyle;rounded=0;orthogonalLoop=1;jettySize=auto;html=1;entryX=0.5;entryY=0;entryDx=0;entryDy=0;strokeColor=default;align=center;verticalAlign=middle;fontFamily=Helvetica;fontSize=11;fontColor=default;labelBackgroundColor=default;endArrow=block;endFill=1;" parent="IEgsuIe9ImZTveWtjrnu-1" source="9lwKUN8deFw_M2zKzOt3-20" target="9lwKUN8deFw_M2zKzOt3-22" edge="1">
          <mxGeometry relative="1" as="geometry" />
        </mxCell>
        <mxCell id="9lwKUN8deFw_M2zKzOt3-20" value="Mengedit data mata kuliah" style="html=1;align=center;verticalAlign=middle;rounded=1;absoluteArcSize=1;arcSize=10;dashed=0;whiteSpace=wrap;labelPosition=center;verticalLabelPosition=middle;fontSize=15;" parent="IEgsuIe9ImZTveWtjrnu-1" vertex="1">
          <mxGeometry x="380" y="1020" width="170" height="40" as="geometry" />
        </mxCell>
        <mxCell id="9lwKUN8deFw_M2zKzOt3-22" value="Tekan tombol simpan mata kuliah" style="html=1;align=center;verticalAlign=middle;rounded=1;absoluteArcSize=1;arcSize=10;dashed=0;whiteSpace=wrap;labelPosition=center;verticalLabelPosition=middle;fontSize=15;" parent="IEgsuIe9ImZTveWtjrnu-1" vertex="1">
          <mxGeometry x="380" y="1090" width="170" height="40" as="geometry" />
        </mxCell>
        <mxCell id="9lwKUN8deFw_M2zKzOt3-44" style="edgeStyle=orthogonalEdgeStyle;rounded=0;orthogonalLoop=1;jettySize=auto;html=1;endArrow=block;endFill=1;" parent="IEgsuIe9ImZTveWtjrnu-1" source="9lwKUN8deFw_M2zKzOt3-29" target="9lwKUN8deFw_M2zKzOt3-43" edge="1">
          <mxGeometry relative="1" as="geometry" />
        </mxCell>
        <mxCell id="Frry8JoZcenMl01VOtcv-34" value="Edit pertemuan" style="edgeLabel;html=1;align=center;verticalAlign=middle;resizable=0;points=[];fontFamily=Helvetica;fontSize=15;fontColor=default;labelBackgroundColor=default;" parent="9lwKUN8deFw_M2zKzOt3-44" vertex="1" connectable="0">
          <mxGeometry x="-0.3304" y="2" relative="1" as="geometry">
            <mxPoint x="19" as="offset" />
          </mxGeometry>
        </mxCell>
        <mxCell id="OuNHtFNaKL7QThp1VH5s-54" style="edgeStyle=orthogonalEdgeStyle;shape=connector;rounded=0;orthogonalLoop=1;jettySize=auto;html=1;entryX=0.5;entryY=0;entryDx=0;entryDy=0;strokeColor=default;align=center;verticalAlign=middle;fontFamily=Helvetica;fontSize=11;fontColor=default;labelBackgroundColor=default;endArrow=block;endFill=1;" edge="1" parent="IEgsuIe9ImZTveWtjrnu-1" source="9lwKUN8deFw_M2zKzOt3-29" target="OuNHtFNaKL7QThp1VH5s-51">
          <mxGeometry relative="1" as="geometry" />
        </mxCell>
        <mxCell id="OuNHtFNaKL7QThp1VH5s-55" value="Isi pertemuan kosong" style="edgeLabel;html=1;align=center;verticalAlign=middle;resizable=0;points=[];fontFamily=Helvetica;fontSize=15;fontColor=default;labelBackgroundColor=default;" vertex="1" connectable="0" parent="OuNHtFNaKL7QThp1VH5s-54">
          <mxGeometry x="0.007" y="-2" relative="1" as="geometry">
            <mxPoint x="-17" as="offset" />
          </mxGeometry>
        </mxCell>
        <mxCell id="OuNHtFNaKL7QThp1VH5s-65" style="edgeStyle=orthogonalEdgeStyle;shape=connector;rounded=0;orthogonalLoop=1;jettySize=auto;html=1;strokeColor=default;align=center;verticalAlign=middle;fontFamily=Helvetica;fontSize=11;fontColor=default;labelBackgroundColor=default;endArrow=block;endFill=1;" edge="1" parent="IEgsuIe9ImZTveWtjrnu-1" source="9lwKUN8deFw_M2zKzOt3-29" target="9lwKUN8deFw_M2zKzOt3-35">
          <mxGeometry relative="1" as="geometry" />
        </mxCell>
        <mxCell id="9lwKUN8deFw_M2zKzOt3-29" value="" style="rhombus;" parent="IEgsuIe9ImZTveWtjrnu-1" vertex="1">
          <mxGeometry x="280" y="1234" width="30" height="30" as="geometry" />
        </mxCell>
        <mxCell id="9lwKUN8deFw_M2zKzOt3-35" value="Logout" style="html=1;align=center;verticalAlign=middle;rounded=1;absoluteArcSize=1;arcSize=10;dashed=0;whiteSpace=wrap;labelPosition=center;verticalLabelPosition=middle;fontSize=15;" parent="IEgsuIe9ImZTveWtjrnu-1" vertex="1">
          <mxGeometry x="210" y="1510" width="170" height="40" as="geometry" />
        </mxCell>
        <mxCell id="9lwKUN8deFw_M2zKzOt3-59" style="edgeStyle=orthogonalEdgeStyle;rounded=0;orthogonalLoop=1;jettySize=auto;html=1;entryX=0.5;entryY=0;entryDx=0;entryDy=0;strokeColor=default;align=center;verticalAlign=middle;fontFamily=Helvetica;fontSize=11;fontColor=default;labelBackgroundColor=default;endArrow=block;endFill=1;" parent="IEgsuIe9ImZTveWtjrnu-1" source="IEgsuIe9ImZTveWtjrnu-68" target="IEgsuIe9ImZTveWtjrnu-69" edge="1">
          <mxGeometry relative="1" as="geometry" />
        </mxCell>
        <mxCell id="IEgsuIe9ImZTveWtjrnu-68" value="Mengisi data mata kuliah" style="html=1;align=center;verticalAlign=middle;rounded=1;absoluteArcSize=1;arcSize=10;dashed=0;whiteSpace=wrap;labelPosition=center;verticalLabelPosition=middle;fontSize=15;" parent="IEgsuIe9ImZTveWtjrnu-1" vertex="1">
          <mxGeometry x="380" y="790" width="170" height="40" as="geometry" />
        </mxCell>
        <mxCell id="IEgsuIe9ImZTveWtjrnu-69" value="Tekan tombol tambah catatan" style="html=1;align=center;verticalAlign=middle;rounded=1;absoluteArcSize=1;arcSize=10;dashed=0;whiteSpace=wrap;labelPosition=center;verticalLabelPosition=middle;fontSize=15;" parent="IEgsuIe9ImZTveWtjrnu-1" vertex="1">
          <mxGeometry x="380" y="888" width="170" height="40" as="geometry" />
        </mxCell>
        <mxCell id="9lwKUN8deFw_M2zKzOt3-40" value="Tekan tombol edit mata kuliah" style="html=1;align=center;verticalAlign=middle;rounded=1;absoluteArcSize=1;arcSize=10;dashed=0;whiteSpace=wrap;labelPosition=center;verticalLabelPosition=middle;fontSize=15;" parent="IEgsuIe9ImZTveWtjrnu-1" vertex="1">
          <mxGeometry x="380" y="960" width="170" height="40" as="geometry" />
        </mxCell>
        <mxCell id="9lwKUN8deFw_M2zKzOt3-41" value="" style="edgeStyle=orthogonalEdgeStyle;rounded=0;orthogonalLoop=1;jettySize=auto;html=1;entryX=0;entryY=0.5;entryDx=0;entryDy=0;strokeColor=default;align=center;verticalAlign=middle;fontFamily=Helvetica;fontSize=11;fontColor=default;labelBackgroundColor=default;endArrow=block;endFill=1;" parent="IEgsuIe9ImZTveWtjrnu-1" source="IEgsuIe9ImZTveWtjrnu-71" target="9lwKUN8deFw_M2zKzOt3-40" edge="1">
          <mxGeometry relative="1" as="geometry">
            <mxPoint x="160" y="948" as="sourcePoint" />
            <mxPoint x="750" y="948" as="targetPoint" />
            <Array as="points">
              <mxPoint x="320" y="895" />
              <mxPoint x="320" y="980" />
            </Array>
          </mxGeometry>
        </mxCell>
        <mxCell id="9lwKUN8deFw_M2zKzOt3-42" value="Edit Mata kuliah" style="edgeLabel;html=1;align=center;verticalAlign=middle;resizable=0;points=[];rounded=0;strokeColor=default;fontFamily=Helvetica;fontSize=15;fontColor=default;labelBackgroundColor=default;" parent="9lwKUN8deFw_M2zKzOt3-41" vertex="1" connectable="0">
          <mxGeometry x="-0.8169" y="-2" relative="1" as="geometry">
            <mxPoint x="52" y="-4" as="offset" />
          </mxGeometry>
        </mxCell>
        <mxCell id="9lwKUN8deFw_M2zKzOt3-43" value="Tekan tombol edit pertemuan" style="html=1;align=center;verticalAlign=middle;rounded=1;absoluteArcSize=1;arcSize=10;dashed=0;whiteSpace=wrap;labelPosition=center;verticalLabelPosition=middle;fontSize=15;" parent="IEgsuIe9ImZTveWtjrnu-1" vertex="1">
          <mxGeometry x="380" y="1276" width="170" height="40" as="geometry" />
        </mxCell>
        <mxCell id="OuNHtFNaKL7QThp1VH5s-59" style="edgeStyle=orthogonalEdgeStyle;shape=connector;rounded=0;orthogonalLoop=1;jettySize=auto;html=1;strokeColor=default;align=center;verticalAlign=middle;fontFamily=Helvetica;fontSize=11;fontColor=default;labelBackgroundColor=default;endArrow=block;endFill=1;" edge="1" parent="IEgsuIe9ImZTveWtjrnu-1" source="9lwKUN8deFw_M2zKzOt3-47" target="9lwKUN8deFw_M2zKzOt3-48">
          <mxGeometry relative="1" as="geometry" />
        </mxCell>
        <mxCell id="9lwKUN8deFw_M2zKzOt3-47" value="Mengedit data mata kuliah" style="html=1;align=center;verticalAlign=middle;rounded=1;absoluteArcSize=1;arcSize=10;dashed=0;whiteSpace=wrap;labelPosition=center;verticalLabelPosition=middle;fontSize=15;" parent="IEgsuIe9ImZTveWtjrnu-1" vertex="1">
          <mxGeometry x="380" y="1337" width="170" height="40" as="geometry" />
        </mxCell>
        <mxCell id="9lwKUN8deFw_M2zKzOt3-48" value="Tekan tombol simpan mata kuliah" style="html=1;align=center;verticalAlign=middle;rounded=1;absoluteArcSize=1;arcSize=10;dashed=0;whiteSpace=wrap;labelPosition=center;verticalLabelPosition=middle;fontSize=15;" parent="IEgsuIe9ImZTveWtjrnu-1" vertex="1">
          <mxGeometry x="380" y="1420" width="170" height="40" as="geometry" />
        </mxCell>
        <mxCell id="OuNHtFNaKL7QThp1VH5s-51" value="Tekan tombol tambah catatan" style="html=1;align=center;verticalAlign=middle;rounded=1;absoluteArcSize=1;arcSize=10;dashed=0;whiteSpace=wrap;labelPosition=center;verticalLabelPosition=middle;fontSize=15;" vertex="1" parent="IEgsuIe9ImZTveWtjrnu-1">
          <mxGeometry x="50" y="1276" width="170" height="40" as="geometry" />
        </mxCell>
        <mxCell id="OuNHtFNaKL7QThp1VH5s-62" style="edgeStyle=orthogonalEdgeStyle;shape=connector;rounded=0;orthogonalLoop=1;jettySize=auto;html=1;strokeColor=default;align=center;verticalAlign=middle;fontFamily=Helvetica;fontSize=11;fontColor=default;labelBackgroundColor=default;endArrow=block;endFill=1;" edge="1" parent="IEgsuIe9ImZTveWtjrnu-1" source="OuNHtFNaKL7QThp1VH5s-52" target="OuNHtFNaKL7QThp1VH5s-53">
          <mxGeometry relative="1" as="geometry" />
        </mxCell>
        <mxCell id="OuNHtFNaKL7QThp1VH5s-52" value="Mengisi data pertemuan" style="html=1;align=center;verticalAlign=middle;rounded=1;absoluteArcSize=1;arcSize=10;dashed=0;whiteSpace=wrap;labelPosition=center;verticalLabelPosition=middle;fontSize=15;" vertex="1" parent="IEgsuIe9ImZTveWtjrnu-1">
          <mxGeometry x="50" y="1372" width="170" height="40" as="geometry" />
        </mxCell>
        <mxCell id="OuNHtFNaKL7QThp1VH5s-53" value="Tekan tombol tambah catatan" style="html=1;align=center;verticalAlign=middle;rounded=1;absoluteArcSize=1;arcSize=10;dashed=0;whiteSpace=wrap;labelPosition=center;verticalLabelPosition=middle;fontSize=15;" vertex="1" parent="IEgsuIe9ImZTveWtjrnu-1">
          <mxGeometry x="50" y="1432" width="170" height="40" as="geometry" />
        </mxCell>
        <mxCell id="IEgsuIe9ImZTveWtjrnu-7" value="Sistem" style="swimlane;whiteSpace=wrap;html=1;" parent="1" vertex="1">
          <mxGeometry x="510" y="10" width="470" height="1610" as="geometry" />
        </mxCell>
        <mxCell id="IEgsuIe9ImZTveWtjrnu-8" style="edgeStyle=orthogonalEdgeStyle;rounded=0;orthogonalLoop=1;jettySize=auto;html=1;endArrow=blockThin;endFill=1;" parent="IEgsuIe9ImZTveWtjrnu-7" edge="1">
          <mxGeometry relative="1" as="geometry">
            <mxPoint x="219.9565217391305" y="90" as="targetPoint" />
          </mxGeometry>
        </mxCell>
        <mxCell id="IEgsuIe9ImZTveWtjrnu-16" value="Menampilkan landing page" style="html=1;align=center;verticalAlign=middle;rounded=1;absoluteArcSize=1;arcSize=10;dashed=0;whiteSpace=wrap;labelPosition=center;verticalLabelPosition=middle;fontSize=16;" parent="IEgsuIe9ImZTveWtjrnu-7" vertex="1">
          <mxGeometry x="60" y="90.5" width="170" height="40" as="geometry" />
        </mxCell>
        <mxCell id="IEgsuIe9ImZTveWtjrnu-19" value="Menampilkan halaman login" style="html=1;align=center;verticalAlign=middle;rounded=1;absoluteArcSize=1;arcSize=10;dashed=0;whiteSpace=wrap;labelPosition=center;verticalLabelPosition=middle;fontSize=15;" parent="IEgsuIe9ImZTveWtjrnu-7" vertex="1">
          <mxGeometry x="60" y="200" width="170" height="40" as="geometry" />
        </mxCell>
        <mxCell id="IEgsuIe9ImZTveWtjrnu-31" value="Menampilkan halaman register" style="html=1;align=center;verticalAlign=middle;rounded=1;absoluteArcSize=1;arcSize=10;dashed=0;whiteSpace=wrap;labelPosition=center;verticalLabelPosition=middle;fontSize=15;" parent="IEgsuIe9ImZTveWtjrnu-7" vertex="1">
          <mxGeometry x="60" y="310" width="170" height="40" as="geometry" />
        </mxCell>
        <mxCell id="IEgsuIe9ImZTveWtjrnu-56" style="edgeStyle=orthogonalEdgeStyle;rounded=0;orthogonalLoop=1;jettySize=auto;html=1;strokeColor=default;align=center;verticalAlign=middle;fontFamily=Helvetica;fontSize=11;fontColor=default;labelBackgroundColor=default;endArrow=block;endFill=1;" parent="IEgsuIe9ImZTveWtjrnu-7" source="IEgsuIe9ImZTveWtjrnu-33" target="IEgsuIe9ImZTveWtjrnu-35" edge="1">
          <mxGeometry relative="1" as="geometry" />
        </mxCell>
        <mxCell id="Frry8JoZcenMl01VOtcv-25" value="Berhasil" style="edgeLabel;html=1;align=center;verticalAlign=middle;resizable=0;points=[];fontSize=15;rounded=0;strokeColor=default;fontFamily=Helvetica;fontColor=default;labelBackgroundColor=default;" parent="IEgsuIe9ImZTveWtjrnu-56" vertex="1" connectable="0">
          <mxGeometry x="0.16" y="1" relative="1" as="geometry">
            <mxPoint x="-1" y="-9" as="offset" />
          </mxGeometry>
        </mxCell>
        <mxCell id="IEgsuIe9ImZTveWtjrnu-33" value="" style="rhombus;" parent="IEgsuIe9ImZTveWtjrnu-7" vertex="1">
          <mxGeometry x="130" y="510" width="30" height="30" as="geometry" />
        </mxCell>
        <mxCell id="IEgsuIe9ImZTveWtjrnu-55" style="edgeStyle=orthogonalEdgeStyle;rounded=0;orthogonalLoop=1;jettySize=auto;html=1;strokeColor=default;align=center;verticalAlign=middle;fontFamily=Helvetica;fontSize=11;fontColor=default;labelBackgroundColor=default;endArrow=block;endFill=1;" parent="IEgsuIe9ImZTveWtjrnu-7" source="IEgsuIe9ImZTveWtjrnu-34" target="IEgsuIe9ImZTveWtjrnu-33" edge="1">
          <mxGeometry relative="1" as="geometry" />
        </mxCell>
        <mxCell id="IEgsuIe9ImZTveWtjrnu-34" value="Melakukan verifikasi" style="html=1;align=center;verticalAlign=middle;rounded=1;absoluteArcSize=1;arcSize=10;dashed=0;whiteSpace=wrap;labelPosition=center;verticalLabelPosition=middle;fontSize=15;" parent="IEgsuIe9ImZTveWtjrnu-7" vertex="1">
          <mxGeometry x="60" y="450" width="170" height="40" as="geometry" />
        </mxCell>
        <mxCell id="IEgsuIe9ImZTveWtjrnu-35" value="Menampilkan halaman dashboard" style="html=1;align=center;verticalAlign=middle;rounded=1;absoluteArcSize=1;arcSize=10;dashed=0;whiteSpace=wrap;labelPosition=center;verticalLabelPosition=middle;fontSize=15;" parent="IEgsuIe9ImZTveWtjrnu-7" vertex="1">
          <mxGeometry x="60" y="580" width="170" height="40" as="geometry" />
        </mxCell>
        <mxCell id="IEgsuIe9ImZTveWtjrnu-61" value="Menampilkan halaman pertemuan" style="html=1;align=center;verticalAlign=middle;rounded=1;absoluteArcSize=1;arcSize=10;dashed=0;whiteSpace=wrap;labelPosition=center;verticalLabelPosition=middle;fontSize=15;" parent="IEgsuIe9ImZTveWtjrnu-7" vertex="1">
          <mxGeometry x="40" y="730" width="170" height="40" as="geometry" />
        </mxCell>
        <mxCell id="IEgsuIe9ImZTveWtjrnu-67" value="menampilkan form tambah mata kuliah" style="html=1;align=center;verticalAlign=middle;rounded=1;absoluteArcSize=1;arcSize=10;dashed=0;whiteSpace=wrap;labelPosition=center;verticalLabelPosition=middle;fontSize=15;" parent="IEgsuIe9ImZTveWtjrnu-7" vertex="1">
          <mxGeometry x="260" y="670" width="170" height="40" as="geometry" />
        </mxCell>
        <mxCell id="IEgsuIe9ImZTveWtjrnu-64" value="Menampilkan halaman detail pertemuan" style="html=1;align=center;verticalAlign=middle;rounded=1;absoluteArcSize=1;arcSize=10;dashed=0;whiteSpace=wrap;labelPosition=center;verticalLabelPosition=middle;fontSize=15;" parent="IEgsuIe9ImZTveWtjrnu-7" vertex="1">
          <mxGeometry x="40" y="1168" width="170" height="40" as="geometry" />
        </mxCell>
        <mxCell id="9lwKUN8deFw_M2zKzOt3-4" value="Menampilkan form edit mata kuliah" style="html=1;align=center;verticalAlign=middle;rounded=1;absoluteArcSize=1;arcSize=10;dashed=0;whiteSpace=wrap;labelPosition=center;verticalLabelPosition=middle;fontSize=15;" parent="IEgsuIe9ImZTveWtjrnu-7" vertex="1">
          <mxGeometry x="40" y="960" width="170" height="40" as="geometry" />
        </mxCell>
        <mxCell id="9lwKUN8deFw_M2zKzOt3-27" style="edgeStyle=orthogonalEdgeStyle;rounded=0;orthogonalLoop=1;jettySize=auto;html=1;entryX=1;entryY=0.5;entryDx=0;entryDy=0;" parent="IEgsuIe9ImZTveWtjrnu-7" source="9lwKUN8deFw_M2zKzOt3-25" target="IEgsuIe9ImZTveWtjrnu-61" edge="1">
          <mxGeometry relative="1" as="geometry">
            <Array as="points">
              <mxPoint x="230" y="1120" />
              <mxPoint x="230" y="750" />
            </Array>
          </mxGeometry>
        </mxCell>
        <mxCell id="9lwKUN8deFw_M2zKzOt3-25" value="Menyimpan catatan ke database" style="html=1;align=center;verticalAlign=middle;rounded=1;absoluteArcSize=1;arcSize=10;dashed=0;whiteSpace=wrap;labelPosition=center;verticalLabelPosition=middle;fontSize=15;" parent="IEgsuIe9ImZTveWtjrnu-7" vertex="1">
          <mxGeometry x="40" y="1090" width="170" height="40" as="geometry" />
        </mxCell>
        <mxCell id="9lwKUN8deFw_M2zKzOt3-61" style="edgeStyle=orthogonalEdgeStyle;rounded=0;orthogonalLoop=1;jettySize=auto;html=1;entryX=1;entryY=0.5;entryDx=0;entryDy=0;strokeColor=default;align=center;verticalAlign=middle;fontFamily=Helvetica;fontSize=11;fontColor=default;labelBackgroundColor=default;endArrow=block;endFill=1;" parent="IEgsuIe9ImZTveWtjrnu-7" source="IEgsuIe9ImZTveWtjrnu-70" target="IEgsuIe9ImZTveWtjrnu-35" edge="1">
          <mxGeometry relative="1" as="geometry">
            <Array as="points">
              <mxPoint x="450" y="908" />
              <mxPoint x="450" y="600" />
            </Array>
          </mxGeometry>
        </mxCell>
        <mxCell id="IEgsuIe9ImZTveWtjrnu-70" value="Menyimpan catatan ke database" style="html=1;align=center;verticalAlign=middle;rounded=1;absoluteArcSize=1;arcSize=10;dashed=0;whiteSpace=wrap;labelPosition=center;verticalLabelPosition=middle;fontSize=15;" parent="IEgsuIe9ImZTveWtjrnu-7" vertex="1">
          <mxGeometry x="260" y="888" width="170" height="40" as="geometry" />
        </mxCell>
        <mxCell id="9lwKUN8deFw_M2zKzOt3-45" value="Menampilkan form edit pertemuan" style="html=1;align=center;verticalAlign=middle;rounded=1;absoluteArcSize=1;arcSize=10;dashed=0;whiteSpace=wrap;labelPosition=center;verticalLabelPosition=middle;fontSize=15;" parent="IEgsuIe9ImZTveWtjrnu-7" vertex="1">
          <mxGeometry x="40" y="1276" width="170" height="40" as="geometry" />
        </mxCell>
        <mxCell id="OuNHtFNaKL7QThp1VH5s-49" style="edgeStyle=orthogonalEdgeStyle;rounded=0;orthogonalLoop=1;jettySize=auto;html=1;entryX=1;entryY=0.5;entryDx=0;entryDy=0;endArrow=block;endFill=1;exitX=1;exitY=0.5;exitDx=0;exitDy=0;" edge="1" parent="IEgsuIe9ImZTveWtjrnu-7" source="9lwKUN8deFw_M2zKzOt3-51" target="IEgsuIe9ImZTveWtjrnu-64">
          <mxGeometry relative="1" as="geometry">
            <Array as="points">
              <mxPoint x="230" y="1439" />
              <mxPoint x="230" y="1188" />
            </Array>
          </mxGeometry>
        </mxCell>
        <mxCell id="9lwKUN8deFw_M2zKzOt3-51" value="Menyimpan catatan ke database" style="html=1;align=center;verticalAlign=middle;rounded=1;absoluteArcSize=1;arcSize=10;dashed=0;whiteSpace=wrap;labelPosition=center;verticalLabelPosition=middle;fontSize=15;" parent="IEgsuIe9ImZTveWtjrnu-7" vertex="1">
          <mxGeometry x="145" y="1420" width="170" height="40" as="geometry" />
        </mxCell>
        <mxCell id="IEgsuIe9ImZTveWtjrnu-66" value="Menampilkan halaman landing page" style="html=1;align=center;verticalAlign=middle;rounded=1;absoluteArcSize=1;arcSize=10;dashed=0;whiteSpace=wrap;labelPosition=center;verticalLabelPosition=middle;fontSize=15;" parent="IEgsuIe9ImZTveWtjrnu-7" vertex="1">
          <mxGeometry x="160" y="1510" width="170" height="40" as="geometry" />
        </mxCell>
        <mxCell id="9lwKUN8deFw_M2zKzOt3-64" style="edgeStyle=orthogonalEdgeStyle;rounded=0;orthogonalLoop=1;jettySize=auto;html=1;entryX=0.5;entryY=0;entryDx=0;entryDy=0;strokeColor=default;align=center;verticalAlign=middle;fontFamily=Helvetica;fontSize=11;fontColor=default;labelBackgroundColor=default;endArrow=block;endFill=1;" parent="IEgsuIe9ImZTveWtjrnu-7" source="IEgsuIe9ImZTveWtjrnu-66" target="9lwKUN8deFw_M2zKzOt3-63" edge="1">
          <mxGeometry relative="1" as="geometry" />
        </mxCell>
        <mxCell id="9lwKUN8deFw_M2zKzOt3-63" value="" style="ellipse;html=1;shape=endState;fillColor=strokeColor;" parent="IEgsuIe9ImZTveWtjrnu-7" vertex="1">
          <mxGeometry x="230" y="1570" width="30" height="30" as="geometry" />
        </mxCell>
        <mxCell id="Frry8JoZcenMl01VOtcv-7" style="edgeStyle=orthogonalEdgeStyle;rounded=0;orthogonalLoop=1;jettySize=auto;html=1;entryX=1;entryY=0.5;entryDx=0;entryDy=0;" parent="IEgsuIe9ImZTveWtjrnu-7" source="Frry8JoZcenMl01VOtcv-4" target="IEgsuIe9ImZTveWtjrnu-19" edge="1">
          <mxGeometry relative="1" as="geometry" />
        </mxCell>
        <mxCell id="Frry8JoZcenMl01VOtcv-4" value="" style="html=1;points=[];perimeter=orthogonalPerimeter;fillColor=strokeColor;" parent="IEgsuIe9ImZTveWtjrnu-7" vertex="1">
          <mxGeometry x="310" y="180" width="5" height="80" as="geometry" />
        </mxCell>
        <mxCell id="Frry8JoZcenMl01VOtcv-23" style="edgeStyle=orthogonalEdgeStyle;rounded=0;orthogonalLoop=1;jettySize=auto;html=1;entryX=1.17;entryY=0.354;entryDx=0;entryDy=0;entryPerimeter=0;strokeColor=default;align=center;verticalAlign=middle;fontFamily=Helvetica;fontSize=11;fontColor=default;labelBackgroundColor=default;endArrow=block;endFill=1;exitX=1;exitY=0.5;exitDx=0;exitDy=0;" parent="IEgsuIe9ImZTveWtjrnu-7" source="IEgsuIe9ImZTveWtjrnu-33" target="Frry8JoZcenMl01VOtcv-4" edge="1">
          <mxGeometry relative="1" as="geometry">
            <Array as="points">
              <mxPoint x="360" y="525" />
              <mxPoint x="360" y="208" />
            </Array>
          </mxGeometry>
        </mxCell>
        <mxCell id="Frry8JoZcenMl01VOtcv-24" value="Gagal" style="edgeLabel;html=1;align=center;verticalAlign=middle;resizable=0;points=[];fontSize=15;" parent="Frry8JoZcenMl01VOtcv-23" vertex="1" connectable="0">
          <mxGeometry x="-0.8956" y="-1" relative="1" as="geometry">
            <mxPoint as="offset" />
          </mxGeometry>
        </mxCell>
        <mxCell id="OuNHtFNaKL7QThp1VH5s-56" value="Menampilkan form tambah catatan" style="html=1;align=center;verticalAlign=middle;rounded=1;absoluteArcSize=1;arcSize=10;dashed=0;whiteSpace=wrap;labelPosition=center;verticalLabelPosition=middle;fontSize=15;" vertex="1" parent="IEgsuIe9ImZTveWtjrnu-7">
          <mxGeometry x="280" y="1310" width="170" height="40" as="geometry" />
        </mxCell>
        <mxCell id="OuNHtFNaKL7QThp1VH5s-71" style="edgeStyle=orthogonalEdgeStyle;shape=connector;rounded=0;orthogonalLoop=1;jettySize=auto;html=1;entryX=0;entryY=0.5;entryDx=0;entryDy=0;strokeColor=default;align=center;verticalAlign=middle;fontFamily=Helvetica;fontSize=11;fontColor=default;labelBackgroundColor=default;endArrow=block;endFill=1;" edge="1" parent="IEgsuIe9ImZTveWtjrnu-7" source="OuNHtFNaKL7QThp1VH5s-67" target="9lwKUN8deFw_M2zKzOt3-51">
          <mxGeometry relative="1" as="geometry" />
        </mxCell>
        <mxCell id="OuNHtFNaKL7QThp1VH5s-67" value="" style="html=1;points=[];perimeter=orthogonalPerimeter;fillColor=strokeColor;" vertex="1" parent="IEgsuIe9ImZTveWtjrnu-7">
          <mxGeometry x="80" y="1400" width="5" height="80" as="geometry" />
        </mxCell>
        <mxCell id="IEgsuIe9ImZTveWtjrnu-38" style="edgeStyle=orthogonalEdgeStyle;rounded=0;orthogonalLoop=1;jettySize=auto;html=1;entryX=0;entryY=0.5;entryDx=0;entryDy=0;endArrow=block;endFill=1;" parent="1" source="IEgsuIe9ImZTveWtjrnu-5" target="IEgsuIe9ImZTveWtjrnu-16" edge="1">
          <mxGeometry relative="1" as="geometry" />
        </mxCell>
        <mxCell id="IEgsuIe9ImZTveWtjrnu-44" style="edgeStyle=orthogonalEdgeStyle;rounded=0;orthogonalLoop=1;jettySize=auto;html=1;entryX=0;entryY=0.5;entryDx=0;entryDy=0;" parent="1" source="IEgsuIe9ImZTveWtjrnu-22" target="IEgsuIe9ImZTveWtjrnu-34" edge="1">
          <mxGeometry relative="1" as="geometry">
            <Array as="points">
              <mxPoint x="60" y="480" />
            </Array>
          </mxGeometry>
        </mxCell>
        <mxCell id="IEgsuIe9ImZTveWtjrnu-47" style="edgeStyle=orthogonalEdgeStyle;rounded=0;orthogonalLoop=1;jettySize=auto;html=1;strokeColor=default;align=center;verticalAlign=middle;fontFamily=Helvetica;fontSize=11;fontColor=default;labelBackgroundColor=default;endArrow=block;endFill=1;" parent="1" source="IEgsuIe9ImZTveWtjrnu-30" target="IEgsuIe9ImZTveWtjrnu-31" edge="1">
          <mxGeometry relative="1" as="geometry" />
        </mxCell>
        <mxCell id="IEgsuIe9ImZTveWtjrnu-58" style="edgeStyle=orthogonalEdgeStyle;rounded=0;orthogonalLoop=1;jettySize=auto;html=1;entryX=0.5;entryY=0;entryDx=0;entryDy=0;" parent="1" source="IEgsuIe9ImZTveWtjrnu-35" target="IEgsuIe9ImZTveWtjrnu-36" edge="1">
          <mxGeometry relative="1" as="geometry">
            <Array as="points">
              <mxPoint x="625" y="610" />
              <mxPoint x="180" y="610" />
            </Array>
          </mxGeometry>
        </mxCell>
        <mxCell id="9lwKUN8deFw_M2zKzOt3-10" style="edgeStyle=orthogonalEdgeStyle;rounded=0;orthogonalLoop=1;jettySize=auto;html=1;entryX=0;entryY=0.5;entryDx=0;entryDy=0;strokeColor=default;align=center;verticalAlign=middle;fontFamily=Helvetica;fontSize=11;fontColor=default;labelBackgroundColor=default;endArrow=block;endFill=1;" parent="1" source="IEgsuIe9ImZTveWtjrnu-37" target="IEgsuIe9ImZTveWtjrnu-61" edge="1">
          <mxGeometry relative="1" as="geometry">
            <Array as="points">
              <mxPoint x="110" y="760" />
            </Array>
          </mxGeometry>
        </mxCell>
        <mxCell id="9lwKUN8deFw_M2zKzOt3-14" style="edgeStyle=orthogonalEdgeStyle;rounded=0;orthogonalLoop=1;jettySize=auto;html=1;entryX=0;entryY=0.5;entryDx=0;entryDy=0;strokeColor=default;align=center;verticalAlign=middle;fontFamily=Helvetica;fontSize=11;fontColor=default;labelBackgroundColor=default;endArrow=block;endFill=1;" parent="1" source="9lwKUN8deFw_M2zKzOt3-40" target="9lwKUN8deFw_M2zKzOt3-4" edge="1">
          <mxGeometry relative="1" as="geometry" />
        </mxCell>
        <mxCell id="9lwKUN8deFw_M2zKzOt3-21" style="edgeStyle=orthogonalEdgeStyle;rounded=0;orthogonalLoop=1;jettySize=auto;html=1;entryX=1;entryY=0.5;entryDx=0;entryDy=0;strokeColor=default;align=center;verticalAlign=middle;fontFamily=Helvetica;fontSize=11;fontColor=default;labelBackgroundColor=default;endArrow=block;endFill=1;" parent="1" source="9lwKUN8deFw_M2zKzOt3-4" target="9lwKUN8deFw_M2zKzOt3-20" edge="1">
          <mxGeometry relative="1" as="geometry">
            <Array as="points">
              <mxPoint x="625" y="1050" />
            </Array>
          </mxGeometry>
        </mxCell>
        <mxCell id="9lwKUN8deFw_M2zKzOt3-26" value="" style="edgeStyle=orthogonalEdgeStyle;rounded=0;orthogonalLoop=1;jettySize=auto;html=1;endArrow=block;endFill=1;" parent="1" source="9lwKUN8deFw_M2zKzOt3-22" target="9lwKUN8deFw_M2zKzOt3-25" edge="1">
          <mxGeometry relative="1" as="geometry" />
        </mxCell>
        <mxCell id="9lwKUN8deFw_M2zKzOt3-46" style="edgeStyle=orthogonalEdgeStyle;rounded=0;orthogonalLoop=1;jettySize=auto;html=1;entryX=0;entryY=0.5;entryDx=0;entryDy=0;strokeColor=default;align=center;verticalAlign=middle;fontFamily=Helvetica;fontSize=11;fontColor=default;labelBackgroundColor=default;endArrow=block;endFill=1;" parent="1" source="9lwKUN8deFw_M2zKzOt3-43" target="9lwKUN8deFw_M2zKzOt3-45" edge="1">
          <mxGeometry relative="1" as="geometry" />
        </mxCell>
        <mxCell id="9lwKUN8deFw_M2zKzOt3-57" style="edgeStyle=orthogonalEdgeStyle;rounded=0;orthogonalLoop=1;jettySize=auto;html=1;entryX=0;entryY=0.5;entryDx=0;entryDy=0;strokeColor=default;align=center;verticalAlign=middle;fontFamily=Helvetica;fontSize=11;fontColor=default;labelBackgroundColor=default;endArrow=block;endFill=1;" parent="1" source="IEgsuIe9ImZTveWtjrnu-59" target="IEgsuIe9ImZTveWtjrnu-67" edge="1">
          <mxGeometry relative="1" as="geometry" />
        </mxCell>
        <mxCell id="9lwKUN8deFw_M2zKzOt3-60" style="edgeStyle=orthogonalEdgeStyle;rounded=0;orthogonalLoop=1;jettySize=auto;html=1;strokeColor=default;align=center;verticalAlign=middle;fontFamily=Helvetica;fontSize=11;fontColor=default;labelBackgroundColor=default;endArrow=block;endFill=1;" parent="1" source="IEgsuIe9ImZTveWtjrnu-69" target="IEgsuIe9ImZTveWtjrnu-70" edge="1">
          <mxGeometry relative="1" as="geometry" />
        </mxCell>
        <mxCell id="Frry8JoZcenMl01VOtcv-14" style="edgeStyle=orthogonalEdgeStyle;rounded=0;orthogonalLoop=1;jettySize=auto;html=1;entryX=0.5;entryY=0;entryDx=0;entryDy=0;strokeColor=default;align=center;verticalAlign=middle;fontFamily=Helvetica;fontSize=11;fontColor=default;labelBackgroundColor=default;endArrow=block;endFill=1;" parent="1" source="IEgsuIe9ImZTveWtjrnu-63" target="IEgsuIe9ImZTveWtjrnu-64" edge="1">
          <mxGeometry relative="1" as="geometry">
            <Array as="points">
              <mxPoint x="55" y="1160" />
              <mxPoint x="635" y="1160" />
            </Array>
          </mxGeometry>
        </mxCell>
        <mxCell id="Frry8JoZcenMl01VOtcv-18" style="edgeStyle=orthogonalEdgeStyle;rounded=0;orthogonalLoop=1;jettySize=auto;html=1;entryX=0;entryY=0.5;entryDx=0;entryDy=0;strokeColor=default;align=center;verticalAlign=middle;fontFamily=Helvetica;fontSize=11;fontColor=default;labelBackgroundColor=default;endArrow=block;endFill=1;" parent="1" source="IEgsuIe9ImZTveWtjrnu-18" target="IEgsuIe9ImZTveWtjrnu-19" edge="1">
          <mxGeometry relative="1" as="geometry">
            <Array as="points">
              <mxPoint x="215" y="230" />
            </Array>
          </mxGeometry>
        </mxCell>
        <mxCell id="Frry8JoZcenMl01VOtcv-19" style="edgeStyle=orthogonalEdgeStyle;rounded=0;orthogonalLoop=1;jettySize=auto;html=1;entryX=0.5;entryY=0;entryDx=0;entryDy=0;strokeColor=default;align=center;verticalAlign=middle;fontFamily=Helvetica;fontSize=11;fontColor=default;labelBackgroundColor=default;endArrow=block;endFill=1;" parent="1" source="IEgsuIe9ImZTveWtjrnu-19" target="IEgsuIe9ImZTveWtjrnu-21" edge="1">
          <mxGeometry relative="1" as="geometry">
            <Array as="points">
              <mxPoint x="655" y="260" />
              <mxPoint x="215" y="260" />
            </Array>
          </mxGeometry>
        </mxCell>
        <mxCell id="Frry8JoZcenMl01VOtcv-21" style="edgeStyle=orthogonalEdgeStyle;rounded=0;orthogonalLoop=1;jettySize=auto;html=1;entryX=1;entryY=0.5;entryDx=0;entryDy=0;strokeColor=default;align=center;verticalAlign=middle;fontFamily=Helvetica;fontSize=11;fontColor=default;labelBackgroundColor=default;endArrow=block;endFill=1;" parent="1" source="IEgsuIe9ImZTveWtjrnu-31" target="IEgsuIe9ImZTveWtjrnu-32" edge="1">
          <mxGeometry relative="1" as="geometry">
            <Array as="points">
              <mxPoint x="655" y="400" />
            </Array>
          </mxGeometry>
        </mxCell>
        <mxCell id="Frry8JoZcenMl01VOtcv-22" style="edgeStyle=orthogonalEdgeStyle;rounded=0;orthogonalLoop=1;jettySize=auto;html=1;entryX=1.048;entryY=0.733;entryDx=0;entryDy=0;entryPerimeter=0;strokeColor=default;align=center;verticalAlign=middle;fontFamily=Helvetica;fontSize=11;fontColor=default;labelBackgroundColor=default;endArrow=block;endFill=1;" parent="1" source="IEgsuIe9ImZTveWtjrnu-32" target="Frry8JoZcenMl01VOtcv-4" edge="1">
          <mxGeometry relative="1" as="geometry">
            <Array as="points">
              <mxPoint x="385" y="440" />
              <mxPoint x="845" y="440" />
              <mxPoint x="845" y="249" />
            </Array>
          </mxGeometry>
        </mxCell>
        <mxCell id="Frry8JoZcenMl01VOtcv-28" style="edgeStyle=orthogonalEdgeStyle;shape=connector;rounded=0;orthogonalLoop=1;jettySize=auto;html=1;entryX=0.5;entryY=0;entryDx=0;entryDy=0;strokeColor=default;align=center;verticalAlign=middle;fontFamily=Helvetica;fontSize=11;fontColor=default;labelBackgroundColor=default;endArrow=block;endFill=1;" parent="1" source="IEgsuIe9ImZTveWtjrnu-61" target="IEgsuIe9ImZTveWtjrnu-71" edge="1">
          <mxGeometry relative="1" as="geometry">
            <Array as="points">
              <mxPoint x="635" y="870" />
              <mxPoint x="110" y="870" />
            </Array>
            <mxPoint x="195" y="870" as="targetPoint" />
          </mxGeometry>
        </mxCell>
        <mxCell id="Frry8JoZcenMl01VOtcv-29" style="edgeStyle=orthogonalEdgeStyle;shape=connector;rounded=0;orthogonalLoop=1;jettySize=auto;html=1;entryX=1;entryY=0.5;entryDx=0;entryDy=0;strokeColor=default;align=center;verticalAlign=middle;fontFamily=Helvetica;fontSize=11;fontColor=default;labelBackgroundColor=default;endArrow=block;endFill=1;" parent="1" source="IEgsuIe9ImZTveWtjrnu-67" target="IEgsuIe9ImZTveWtjrnu-68" edge="1">
          <mxGeometry relative="1" as="geometry">
            <Array as="points">
              <mxPoint x="855" y="820" />
            </Array>
          </mxGeometry>
        </mxCell>
        <mxCell id="OuNHtFNaKL7QThp1VH5s-50" style="edgeStyle=orthogonalEdgeStyle;shape=connector;rounded=0;orthogonalLoop=1;jettySize=auto;html=1;entryX=0.5;entryY=0;entryDx=0;entryDy=0;strokeColor=default;align=center;verticalAlign=middle;fontFamily=Helvetica;fontSize=11;fontColor=default;labelBackgroundColor=default;endArrow=block;endFill=1;" edge="1" parent="1" source="IEgsuIe9ImZTveWtjrnu-64" target="9lwKUN8deFw_M2zKzOt3-29">
          <mxGeometry relative="1" as="geometry" />
        </mxCell>
        <mxCell id="OuNHtFNaKL7QThp1VH5s-57" style="edgeStyle=orthogonalEdgeStyle;shape=connector;rounded=0;orthogonalLoop=1;jettySize=auto;html=1;entryX=0;entryY=0.5;entryDx=0;entryDy=0;strokeColor=default;align=center;verticalAlign=middle;fontFamily=Helvetica;fontSize=11;fontColor=default;labelBackgroundColor=default;endArrow=block;endFill=1;" edge="1" parent="1" source="OuNHtFNaKL7QThp1VH5s-51" target="OuNHtFNaKL7QThp1VH5s-56">
          <mxGeometry relative="1" as="geometry">
            <Array as="points">
              <mxPoint x="55" y="1340" />
              <mxPoint x="790" y="1340" />
            </Array>
          </mxGeometry>
        </mxCell>
        <mxCell id="OuNHtFNaKL7QThp1VH5s-58" style="edgeStyle=orthogonalEdgeStyle;shape=connector;rounded=0;orthogonalLoop=1;jettySize=auto;html=1;entryX=1;entryY=0.5;entryDx=0;entryDy=0;strokeColor=default;align=center;verticalAlign=middle;fontFamily=Helvetica;fontSize=11;fontColor=default;labelBackgroundColor=default;endArrow=block;endFill=1;" edge="1" parent="1" source="9lwKUN8deFw_M2zKzOt3-45" target="9lwKUN8deFw_M2zKzOt3-47">
          <mxGeometry relative="1" as="geometry">
            <Array as="points">
              <mxPoint x="640" y="1367" />
            </Array>
          </mxGeometry>
        </mxCell>
        <mxCell id="OuNHtFNaKL7QThp1VH5s-61" style="edgeStyle=orthogonalEdgeStyle;shape=connector;rounded=0;orthogonalLoop=1;jettySize=auto;html=1;entryX=1;entryY=0.5;entryDx=0;entryDy=0;strokeColor=default;align=center;verticalAlign=middle;fontFamily=Helvetica;fontSize=11;fontColor=default;labelBackgroundColor=default;endArrow=block;endFill=1;" edge="1" parent="1" target="OuNHtFNaKL7QThp1VH5s-52">
          <mxGeometry relative="1" as="geometry">
            <mxPoint x="875" y="1362" as="sourcePoint" />
            <Array as="points">
              <mxPoint x="875" y="1402" />
            </Array>
          </mxGeometry>
        </mxCell>
        <mxCell id="OuNHtFNaKL7QThp1VH5s-66" style="edgeStyle=orthogonalEdgeStyle;shape=connector;rounded=0;orthogonalLoop=1;jettySize=auto;html=1;entryX=0;entryY=0.5;entryDx=0;entryDy=0;strokeColor=default;align=center;verticalAlign=middle;fontFamily=Helvetica;fontSize=11;fontColor=default;labelBackgroundColor=default;endArrow=block;endFill=1;" edge="1" parent="1" source="9lwKUN8deFw_M2zKzOt3-35" target="IEgsuIe9ImZTveWtjrnu-66">
          <mxGeometry relative="1" as="geometry" />
        </mxCell>
        <mxCell id="OuNHtFNaKL7QThp1VH5s-69" style="edgeStyle=orthogonalEdgeStyle;shape=connector;rounded=0;orthogonalLoop=1;jettySize=auto;html=1;entryX=0.567;entryY=0.792;entryDx=0;entryDy=0;entryPerimeter=0;strokeColor=default;align=center;verticalAlign=middle;fontFamily=Helvetica;fontSize=11;fontColor=default;labelBackgroundColor=default;endArrow=block;endFill=1;" edge="1" parent="1" source="OuNHtFNaKL7QThp1VH5s-53" target="OuNHtFNaKL7QThp1VH5s-67">
          <mxGeometry relative="1" as="geometry">
            <Array as="points">
              <mxPoint x="55" y="1500" />
              <mxPoint x="560" y="1500" />
              <mxPoint x="560" y="1473" />
            </Array>
          </mxGeometry>
        </mxCell>
        <mxCell id="OuNHtFNaKL7QThp1VH5s-70" style="edgeStyle=orthogonalEdgeStyle;shape=connector;rounded=0;orthogonalLoop=1;jettySize=auto;html=1;entryX=0.733;entryY=0.49;entryDx=0;entryDy=0;entryPerimeter=0;strokeColor=default;align=center;verticalAlign=middle;fontFamily=Helvetica;fontSize=11;fontColor=default;labelBackgroundColor=default;endArrow=block;endFill=1;" edge="1" parent="1" source="9lwKUN8deFw_M2zKzOt3-48" target="OuNHtFNaKL7QThp1VH5s-67">
          <mxGeometry relative="1" as="geometry" />
        </mxCell>
      </root>
    </mxGraphModel>
  </diagram>
</mxfile>
